{"title":"The Speed of Thought [2011] DVDRip XviD DAYN-D3MT","uid":6315448,"size":774138236,"categoryP":"video","categoryS":"movies","magnet":"?xt=urn:btih:475f99a1c1c73447d340a1a3ff0782da9e3e55cf&amp;dn=The+Speed+of+Thought+%5B2011%5D+DVDRip+XviD+DAYN-D3MT&amp;tr=udp%3A%2F%2Ftracker.openbittorrent.com%3A80&amp;tr=udp%3A%2F%2Fopen.demonii.com%3A1337&amp;tr=udp%3A%2F%2Ftracker.coppersurfer.tk%3A6969&amp;tr=udp%3A%2F%2Fexodus.desync.com%3A6969","seeders":0,"leechers":1,"uploader":"arihantkatariya","files":2,"time":1302692213,"description":"The Speed of Thought [2011] DVDRip XviD DAYN-DAYN DOT ORG\n\n\n\nInfo:Format                           : AVI\nFormat/Info                      : Audio Video Interleave\nFile size                        : 714 MiB\nDuration                         : 1h 33mn\nOverall bit rate                 : 1 065 Kbps\nWriting application              : Lavf52.39.1\n\nVideo\nID                               : 0\nFormat                           : MPEG-4 Visual\nFormat profile                   : Advanced Simple@L1\nFormat settings, BVOP            : 2\nFormat settings, QPel            : No\nFormat settings, GMC             : No warppoints\nFormat settings, Matrix          : Default (H.263)\nCodec ID                         : DX50\nCodec ID/Hint                    : DivX 5\nDuration                         : 1h 33mn\nBit rate                         : 924 Kbps\nWidth                            : 624 pixels\nHeight                           : 272 pixels\nDisplay aspect ratio             : 16:9\nFrame rate                       : 23.976 fps\nColor space                      : YUV\nChroma subsampling               : 4:2:0\nBit depth                        : 8 bits\nScan type                        : Progressive\nCompression mode                 : Lossy\nBits/(Pixel*Frame)               : 0.227\nStream size                      : 620 MiB (87%)\nWriting library                  : Lavc52.37.0\n\nAudio\nID                               : 1\nFormat                           : MPEG Audio\nFormat version                   : Version 1\nFormat profile                   : Layer 2\nCodec ID                         : 50\nDuration                         : 1h 33mn\nBit rate mode                    : Constant\nBit rate                         : 128 Kbps\nChannel(s)                       : 2 channels\nSampling rate                    : 48.0 KHz\nCompression mode                 : Lossy\nStream size                      : 85.8 MiB (12%)\nAlignment                        : Aligned on interleaves\nInterleave, duration             : 24 ms (0.58 video frame\n","torrent":{"xt":"urn:btih:475f99a1c1c73447d340a1a3ff0782da9e3e55cf","amp;dn":"The+Speed+of+Thought+%5B2011%5D+DVDRip+XviD+DAYN-D3MT","amp;tr":["udp%3A%2F%2Ftracker.openbittorrent.com%3A80","udp%3A%2F%2Fopen.demonii.com%3A1337","udp%3A%2F%2Ftracker.coppersurfer.tk%3A6969","udp%3A%2F%2Fexodus.desync.com%3A6969"],"infoHash":"475f99a1c1c73447d340a1a3ff0782da9e3e55cf","infoHashBuffer":{"type":"Buffer","data":[71,95,153,161,193,199,52,71,211,64,161,163,255,7,130,218,158,62,85,207]},"announce":[],"urlList":[]}}